<svg xmlns="http://www.w3.org/2000/svg" xmlns:xlink="http://www.w3.org/1999/xlink" version="1.0" x="0px" y="0px" viewBox="0 0 100 125" enable-background="new 0 0 100 100" xml:space="preserve"><polygon points="12.072,77.152 12.072,61.124 8.022,49.997 8.022,77.152 12.072,77.152 "/><polygon points="52.087,62.141 52.087,77.152 55.682,77.152 57.619,62.141 52.087,62.141 "/><path d="M73.294,46.995V36.932h2.7v5.087h11.929c1.688,0,3.056-1.367,3.056-3.055v-1.97l-5.871-5.872v-2.001l-3.233-3.232  l4.328-1.679v-2.362h-8.638c-1.537,0-2.781,1.245-2.781,2.781l-9.59,4.774h-46.37c-5.927,0.016-10.714,4.76-10.799,10.643  c-0.002,1.386,0.209,2.633,0.653,3.854L20.78,77.152h4.31l-3.583-9.846l4.925-13.531c0.333-0.916,0.491-1.853,0.491-2.772h2.699  v6.993c1.589,0.919,3.434,1.443,5.4,1.443h25.296v17.713h3.595l3.639-19.67C71.005,55.271,73.294,51.4,73.294,46.995L73.294,46.995z  "/><text x="0" y="115" fill="#000000" font-size="5px" font-weight="bold" font-family="'Helvetica Neue', Helvetica, Arial-Unicode, Arial, Sans-serif">Created by Sascha Elmers</text><text x="0" y="120" fill="#000000" font-size="5px" font-weight="bold" font-family="'Helvetica Neue', Helvetica, Arial-Unicode, Arial, Sans-serif">from the Noun Project</text></svg>