<svg xmlns="http://www.w3.org/2000/svg" xmlns:xlink="http://www.w3.org/1999/xlink" version="1.1" x="0px" y="0px" viewBox="0 0 100 125" enable-background="new 0 0 100 100" xml:space="preserve"><path d="M79.419,42.823L84.242,38H89c1.657,0,3-1.343,3-3s-1.343-3-3-3h-6c-0.795,0-1.559,0.316-2.121,0.879  l-6.109,6.109c-1.842-1.332-3.755-2.497-5.688-3.488l7.088-7.429C76.703,27.513,77,26.772,77,26v-7.758l5.121-5.121  c1.172-1.172,1.172-3.07,0-4.242s-3.07-1.172-4.242,0l-6,6C71.316,15.441,71,16.205,71,17v7.799l-7.701,8.069  c-0.578-1.347-1.302-2.601-2.164-3.758C63.536,27.526,65,25.413,65,23c0-3.733-3.436-6.776-8.588-8.169l1.709-1.709  c1.172-1.172,1.172-3.07,0-4.242s-3.07-1.172-4.242,0L50,12.758l-3.879-3.879c-1.172-1.172-3.07-1.172-4.242,0s-1.172,3.07,0,4.242  l1.709,1.709C38.436,16.224,35,19.267,35,23c0,2.413,1.464,4.526,3.865,6.11c-0.862,1.157-1.586,2.411-2.164,3.758L29,24.799V17  c0-0.795-0.316-1.559-0.879-2.121l-6-6c-1.172-1.172-3.07-1.172-4.242,0s-1.172,3.07,0,4.242L23,18.242V26  c0,0.772,0.297,1.513,0.829,2.071l7.088,7.429c-1.932,0.991-3.845,2.156-5.688,3.488l-6.109-6.109C18.559,32.316,17.795,32,17,32h-6  c-1.657,0-3,1.343-3,3s1.343,3,3,3h4.758l4.823,4.823c-6.554,6.164-13.653,16.83-12.404,25.73  c1.384,9.848,13.391,15.93,27.227,7.357C37.253,89.82,45.211,92,50,92c4.789,0,12.746-2.18,14.595-16.088  c13.758,8.525,25.836,2.561,27.226-7.36C93.074,59.64,85.953,48.969,79.419,42.823z M14.119,67.719  c-1.006-7.167,7.519-21.424,20.887-27.548c-0.19,6.716,2.804,12.667,9.255,14.888c-0.961,2.589-2.148,5.499-3.517,7.537  C31.172,76.821,15.383,76.72,14.119,67.719z M85.88,67.719c-1.267,9.02-17.076,9.075-26.624-5.123  c-1.369-2.038-2.556-4.948-3.517-7.537c6.285-2.164,9.452-7.929,9.255-14.888C78.443,46.332,86.877,60.614,85.88,67.719z"/><text x="0" y="115" fill="#000000" font-size="5px" font-weight="bold" font-family="'Helvetica Neue', Helvetica, Arial-Unicode, Arial, Sans-serif">Created by Ayub Irawan</text><text x="0" y="120" fill="#000000" font-size="5px" font-weight="bold" font-family="'Helvetica Neue', Helvetica, Arial-Unicode, Arial, Sans-serif">from the Noun Project</text></svg>