<svg xmlns="http://www.w3.org/2000/svg" xmlns:xlink="http://www.w3.org/1999/xlink" version="1.0" x="0px" y="0px" viewBox="0 0 128 160" style="enable-background:new 0 0 128 128;" xml:space="preserve"><style type="text/css">
	.st0{display:none;}
	.st1{display:inline;}
	.st2{fill:none;stroke:#000000;stroke-miterlimit:10;}
	.st3{fill:none;stroke:#000000;stroke-width:0.1;stroke-miterlimit:10;}
</style><g class="st0"><g class="st1"><rect class="st3" width="128" height="128"/><line class="st3" x1="0" y1="4" x2="128" y2="4"/><line class="st3" x1="0" y1="8" x2="128" y2="8"/><line class="st3" x1="0" y1="12" x2="128" y2="12"/><line class="st3" x1="0" y1="16" x2="128" y2="16"/><line class="st3" x1="0" y1="20" x2="128" y2="20"/><line class="st3" x1="0" y1="24" x2="128" y2="24"/><line class="st3" x1="0" y1="28" x2="128" y2="28"/><line class="st3" x1="0" y1="32" x2="128" y2="32"/><line class="st3" x1="0" y1="36" x2="128" y2="36"/><line class="st3" x1="0" y1="40" x2="128" y2="40"/><line class="st3" x1="0" y1="44" x2="128" y2="44"/><line class="st3" x1="0" y1="48" x2="128" y2="48"/><line class="st3" x1="0" y1="52" x2="128" y2="52"/><line class="st3" x1="0" y1="56" x2="128" y2="56"/><line class="st3" x1="0" y1="60" x2="128" y2="60"/><line class="st3" x1="0" y1="64" x2="128" y2="64"/><line class="st3" x1="0" y1="68" x2="128" y2="68"/><line class="st3" x1="0" y1="72" x2="128" y2="72"/><line class="st3" x1="0" y1="76" x2="128" y2="76"/><line class="st3" x1="0" y1="80" x2="128" y2="80"/><line class="st3" x1="0" y1="84" x2="128" y2="84"/><line class="st3" x1="0" y1="88" x2="128" y2="88"/><line class="st3" x1="0" y1="92" x2="128" y2="92"/><line class="st3" x1="0" y1="96" x2="128" y2="96"/><line class="st3" x1="0" y1="100" x2="128" y2="100"/><line class="st3" x1="0" y1="104" x2="128" y2="104"/><line class="st3" x1="0" y1="108" x2="128" y2="108"/><line class="st3" x1="0" y1="112" x2="128" y2="112"/><line class="st3" x1="0" y1="116" x2="128" y2="116"/><line class="st3" x1="0" y1="120" x2="128" y2="120"/><line class="st3" x1="0" y1="124" x2="128" y2="124"/><line class="st3" x1="124" y1="128" x2="124" y2="0"/><line class="st3" x1="120" y1="128" x2="120" y2="0"/><line class="st3" x1="116" y1="128" x2="116" y2="0"/><line class="st3" x1="112" y1="128" x2="112" y2="0"/><line class="st3" x1="108" y1="128" x2="108" y2="0"/><line class="st3" x1="104" y1="128" x2="104" y2="0"/><line class="st3" x1="100" y1="128" x2="100" y2="0"/><line class="st3" x1="96" y1="128" x2="96" y2="0"/><line class="st3" x1="92" y1="128" x2="92" y2="0"/><line class="st3" x1="88" y1="128" x2="88" y2="0"/><line class="st3" x1="84" y1="128" x2="84" y2="0"/><line class="st3" x1="80" y1="128" x2="80" y2="0"/><line class="st3" x1="76" y1="128" x2="76" y2="0"/><line class="st3" x1="72" y1="128" x2="72" y2="0"/><line class="st3" x1="68" y1="128" x2="68" y2="0"/><line class="st3" x1="64" y1="128" x2="64" y2="0"/><line class="st3" x1="60" y1="128" x2="60" y2="0"/><line class="st3" x1="56" y1="128" x2="56" y2="0"/><line class="st3" x1="52" y1="128" x2="52" y2="0"/><line class="st3" x1="48" y1="128" x2="48" y2="0"/><line class="st3" x1="44" y1="128" x2="44" y2="0"/><line class="st3" x1="40" y1="128" x2="40" y2="0"/><line class="st3" x1="36" y1="128" x2="36" y2="0"/><line class="st3" x1="32" y1="128" x2="32" y2="0"/><line class="st3" x1="28" y1="128" x2="28" y2="0"/><line class="st3" x1="24" y1="128" x2="24" y2="0"/><line class="st3" x1="20" y1="128" x2="20" y2="0"/><line class="st3" x1="16" y1="128" x2="16" y2="0"/><line class="st3" x1="12" y1="128" x2="12" y2="0"/><line class="st3" x1="8" y1="128" x2="8" y2="0"/><line class="st3" x1="4" y1="128" x2="4" y2="0"/></g></g><g><g><g><g><path d="M55.2,87c-4-6.8-11.6-8.2-12.9-8.4c-0.3,0.8-3.4,8.2,0.8,15.4c3.7,6.4,10.3,7.8,11.4,8      c1-2.6,1.9-5.2,2.9-7.8C57.3,92.5,56.8,89.8,55.2,87z"/><path d="M72.8,87c4-6.8,11.6-8.2,12.9-8.4c0.3,0.8,3.4,8.2-0.8,15.4c-3.7,6.4-10.3,7.8-11.4,8      c-1-2.6-1.9-5.2-2.9-7.8C70.7,92.5,71.2,89.8,72.8,87z"/><path d="M55.2,61.8c-4-6.8-11.6-8.2-12.9-8.4c-0.3,0.8-3.4,8.2,0.8,15.4c3.7,6.4,10.3,7.8,11.4,8      c1-2.6,1.9-5.2,2.9-7.8C57.3,67.2,56.8,64.5,55.2,61.8z"/><path d="M72.8,61.8c4-6.8,11.6-8.2,12.9-8.4c0.3,0.8,3.4,8.2-0.8,15.4c-3.7,6.4-10.3,7.8-11.4,8      c-1-2.6-1.9-5.2-2.9-7.8C70.7,67.2,71.2,64.5,72.8,61.8z"/><path d="M55.2,36.6c-4-6.8-11.6-8.2-12.9-8.4c-0.3,0.8-3.4,8.2,0.8,15.4c3.7,6.4,10.3,7.8,11.4,8      c1-2.6,1.9-5.2,2.9-7.8C57.3,42,56.8,39.3,55.2,36.6z"/><path d="M72.8,36.6c4-6.8,11.6-8.2,12.9-8.4c0.3,0.8,3.4,8.2-0.8,15.4c-3.7,6.4-10.3,7.8-11.4,8      c-1-2.6-1.9-5.2-2.9-7.8C70.7,42,71.2,39.3,72.8,36.6z"/></g><path d="M71.3,16.9c0,8.7-6.8,13.4-7.3,13.8c-0.5-0.4-7.3-5.1-7.3-13.8S63.5,3.5,64,3.1     C64.5,3.5,71.3,8.2,71.3,16.9z"/></g><rect x="61.5" y="33.9" width="5" height="90.9"/></g></g><text x="0" y="143" fill="#000000" font-size="5px" font-weight="bold" font-family="'Helvetica Neue', Helvetica, Arial-Unicode, Arial, Sans-serif">Created by SBTS</text><text x="0" y="148" fill="#000000" font-size="5px" font-weight="bold" font-family="'Helvetica Neue', Helvetica, Arial-Unicode, Arial, Sans-serif">from the Noun Project</text></svg>