<svg xmlns:dc="http://purl.org/dc/elements/1.1/" xmlns:cc="http://creativecommons.org/ns#" xmlns:rdf="http://www.w3.org/1999/02/22-rdf-syntax-ns#" xmlns:svg="http://www.w3.org/2000/svg" xmlns="http://www.w3.org/2000/svg" xmlns:sodipodi="http://sodipodi.sourceforge.net/DTD/sodipodi-0.dtd" xmlns:inkscape="http://www.inkscape.org/namespaces/inkscape" viewBox="0 0 12.7 15.875" version="1.1" x="0px" y="0px"><g transform="translate(0,-284.29998)"><path style="" d="m 2.8394073,284.82916 a 3.2460462,3.2460462 0 0 0 -2.01352651,0.70535 0.18790099,0.18790099 0 0 0 -0.0700975,0.15654 1.1818991,1.1818991 0 0 0 0.0944793,0.40642 0.37605529,0.37605529 0 0 1 -0.0253977,0.34615 1.9433848,1.9433848 0 0 0 -0.22979803,1.50445 0.7518572,0.7518572 0 0 0 0.73185894,0.56519 2.335283,2.335283 0 0 0 1.569677,-0.6163 0.09408235,0.09408235 0 0 1 0.1271915,0.13862 2.5234374,2.5234374 0 0 1 -0.5135407,0.36518 6.4131403,6.4131403 0 0 0 1.3236245,1.57876 19.233965,19.233965 0 0 1 0.5895304,-1.46209 0.09407719,0.09407719 0 0 1 0.1713834,0.0773 19.04581,19.04581 0 0 0 -1.6705564,7.03457 1.5222988,1.5222988 0 0 0 -0.8776416,0.81507 0.01871409,0.01871409 0 0 0 0.01727,0.0264 h 1.2780103 a 0.17471474,0.17471474 0 0 0 0.1691484,-0.13237 38.699187,38.699187 0 0 1 2.2808115,-6.55757 0.09407719,0.09407719 0 0 1 0.1713834,0.0775 38.511033,38.511033 0 0 0 -0.4964735,1.14705 6.4131403,6.4131403 0 0 0 2.2474897,0.52408 2.2685258,2.2685258 0 0 1 1.6199644,-1.9463 0.0942181,0.0942181 0 1 1 0.053843,0.18058 2.0803716,2.0803716 0 0 0 -1.276588,2.92778 3.5856234,3.5856234 0 0 0 1.1841405,1.47514 0.74505649,0.74505649 0 0 1 -0.6307762,1.32262 0.91936656,0.91936656 0 0 0 -1.1586413,0.88772 v 0.0938 h 3.1520529 a 0.18790099,0.18790099 0 0 0 0.187029,-0.21112 17.067204,17.067204 0 0 0 -0.593086,-2.80805 0.37605529,0.37605529 0 0 1 0.09854,-0.37837 8.6397343,8.6397343 0 0 0 1.525587,-1.98255 1.3779892,1.3779892 0 0 0 -0.361967,-2.01561 0.37605529,0.37605529 0 0 1 -0.168641,-0.23738 3.2561337,3.2561337 0 0 0 -1.8917196,-2.2805 10.377712,10.377712 0 0 0 -4.779738,-1.16511 3.2460462,3.2460462 0 0 0 -1.8341174,-0.56297 z m 0.5539737,0.60881 a 0.59311814,0.59311814 0 0 1 0.343478,1.07204 0.094085,0.094085 0 0 1 -0.110937,-0.15196 0.40496384,0.40496384 0 1 0 -0.6244777,-0.45072 0.09410238,0.09410238 0 0 1 -0.1792058,-0.0575 0.59311814,0.59311814 0 0 1 0.5711425,-0.41185 z m -1.8093293,0.6891 a 0.23177117,0.23177117 0 0 1 0.010159,0 0.23177117,0.23177117 0 0 1 0.2267503,0.24321 0.23177117,0.23177117 0 1 1 -0.4629485,0 0.23177117,0.23177117 0 0 1 0.2268519,-0.24321 z" fill="#000000" stroke="none"/><path style="" d="m 1.8742962,296.36809 a 0.20686841,0.20686841 0 0 0 -0.01727,0.10268 H 0.89547038 a 0.01871409,0.01871409 0 0 1 -0.0182863,-0.0228 2.2710961,2.2710961 0 0 1 0.84056092,-1.31559 0.37605531,0.37605531 0 0 0 0.1480176,-0.30406 20.045648,20.045648 0 0 1 0.7929149,-5.85709 6.6012949,6.6012949 0 0 0 1.1080491,1.19869 19.233965,19.233965 0 0 0 -1.0255575,5.33006 1.7104532,1.7104532 0 0 0 -0.8668729,0.86807 z" fill="#000000" stroke="none"/><path style="" d="m 6.7408942,295.41469 a 1.5381505,1.5381505 0 0 0 -1.5069955,1.0312 0.01871409,0.01871409 0 0 0 0.01727,0.0249 h 2.0660488 v -0.0937 a 1.1075209,1.1075209 0 0 1 0.6734444,-1.01915 l 0.6493673,-1.51924 a 3.773778,3.773778 0 0 1 -0.700569,-1.06758 2.2685259,2.2685259 0 0 1 -0.2375189,-1.05373 6.6012949,6.6012949 0 0 1 -0.8890197,-0.10402 1.2972519,1.2972519 0 0 0 -0.3577007,1.60718 l 0.7453706,1.47353 a 0.49665797,0.49665797 0 0 1 -0.4602056,0.72063 z" fill="#000000" stroke="none"/></g><text x="0" y="27.7" fill="#000000" font-size="5px" font-weight="bold" font-family="'Helvetica Neue', Helvetica, Arial-Unicode, Arial, Sans-serif">Created by Phạm Thanh Lộc</text><text x="0" y="32.7" fill="#000000" font-size="5px" font-weight="bold" font-family="'Helvetica Neue', Helvetica, Arial-Unicode, Arial, Sans-serif">from the Noun Project</text></svg>